# xmcd CD database file
#
# Track frame offsets:
#	150
#	12564
#	27849
#	44662
#	61738
#	79046
#	93635
#	108396
#	124671
#	138570
#	151931
#	168900
#	180904
#	196402
#	207051
#	231222
#	246748
#	259211
#	270898
#	285360
#	297349
#	310793
#
# Disc length: 4321 seconds
#
# Revision: 0
# Processed by: cddbd v1.5.1PL0 Copyright (c) Steve Scherf et al.
# Submitted via: CDex 1.51
#
DISCID=3310df16
DTITLE=Various Artist - 105 Goldene Melodien
DYEAR=1900
DGENRE=Volksweisen
TTITLE0=Der Tölzer Knabenchor - Mein Vater war ein Wandersmann
TTITLE1=Original Schwarzwaldfamilie Seitz - Es steht eine Mühle im Schwarzwäldertal
TTITLE2=H. and E. Kollmannsberger u. d. Wendelsteiner - Almenrausch und Edelweiß
TTITLE3=Hermann Prey und der Tölzer Knabenchor - Ännchen von Thurau
TTITLE4=Lolita und der Botho-Lucas-Chor - Das Kufsteiner Lied
TTITLE5=Gitti and Erika - Waldeslust
TTITLE6=Coro Dolomiti di Trento - La Montanara
TTITLE7=Sepp Viellechner - Kinder der blauen Berge
TTITLE8=Heiz Hoppe - Vor meinem Vaterhaus steht eine Linde
TTITLE9=Freddy Breck - Schneewalzer
TTITLE10=Hubert Wolf u. s. original Böhmerländer Musikanten - Es war im Böhmerwald
TTITLE11=Das Hellberg-Duo - Im grünen Wald
TTITLE12=Margit Anderson and Roland Steinel - Das Schwarzwaldlied
TTITLE13=Maxl Graf /So jung komma nimma z'amm
TTITLE14=Johann Strauß II - Militär-Marsch
TTITLE15=Peter I. Tchaikovsky - Kaiser Franz Josef Jubel-Marsch
TTITLE16=Monty Sunshine - Petite Fleur
TTITLE17=Ottilie Patterson - Bourbon St. Parade
TTITLE18=Monty Sunshine - Bill Bailey Won't You Please Come Home
TTITLE19=Monty Sunshine - When You and I Were Young Maggie
TTITLE20=Monty Sunshine - Wild Cat Blues
TTITLE21=Chris Barber - Thriller Rag
EXTD=
EXTT0=
EXTT1=
EXTT2=
EXTT3=
EXTT4=
EXTT5=
EXTT6=
EXTT7=
EXTT8=
EXTT9=
EXTT10=
EXTT11=
EXTT12=
EXTT13=
EXTT14=
EXTT15=
EXTT16=
EXTT17=
EXTT18=
EXTT19=
EXTT20=
EXTT21=
PLAYORDER=
